<svg xmlns="http://www.w3.org/2000/svg" width="45" height="45" viewBox="0 0 45 45" fill="none">
  <path d="M15.9375 23.4375L29.0625 23.4375" stroke="white" stroke-width="1.875" stroke-linecap="round"/>
  <path d="M15.9375 29.0625L23.4375 29.0625" stroke="white" stroke-width="1.875" stroke-linecap="round"/>
  <path d="M10.3125 11.0625C10.3125 9.48735 10.3125 8.69978 10.619 8.09815C10.8887 7.56895 11.3189 7.13869 11.8482 6.86904C12.4498 6.5625 13.2374 6.5625 14.8125 6.5625H23.4485C24.1365 6.5625 24.4804 6.5625 24.8041 6.64021C25.0911 6.70911 25.3654 6.82274 25.6171 6.97695C25.9009 7.15088 26.1441 7.39409 26.6305 7.88052L33.3695 14.6195C33.8559 15.1059 34.0991 15.3491 34.2731 15.6329C34.4273 15.8846 34.5409 16.1589 34.6098 16.4459C34.6875 16.7696 34.6875 17.1135 34.6875 17.8015V33.9375C34.6875 35.5126 34.6875 36.3002 34.381 36.9018C34.1113 37.4311 33.6811 37.8613 33.1518 38.131C32.5502 38.4375 31.7626 38.4375 30.1875 38.4375H14.8125C13.2374 38.4375 12.4498 38.4375 11.8482 38.131C11.3189 37.8613 10.8887 37.4311 10.619 36.9018C10.3125 36.3002 10.3125 35.5126 10.3125 33.9375V11.0625Z" stroke="white" stroke-width="1.875"/>
  <path d="M23.4375 6.5625V13.3125C23.4375 14.8876 23.4375 15.6752 23.744 16.2768C24.0137 16.8061 24.4439 17.2363 24.9732 17.506C25.5748 17.8125 26.3624 17.8125 27.9375 17.8125H34.6875" stroke="white" stroke-width="1.875"/>
</svg>