<svg xmlns="http://www.w3.org/2000/svg" width="20" height="20" viewBox="0 0 20 20" fill="none">
  <path fill-rule="evenodd" clip-rule="evenodd" d="M14.1105 5.9158C14.1105 8.19357 12.2493 10.0269 9.99935 10.0269C7.72157 10.0269 5.91602 8.19357 5.91602 5.9158C5.91602 3.63802 7.77713 1.80469 10.0271 1.80469C11.7493 1.80469 13.2216 2.86024 13.8327 4.38802V4.4158C13.9993 4.88802 14.1105 5.38802 14.1105 5.9158ZM13.1392 4.22049C12.5281 3.10937 11.3614 2.35937 10.0003 2.35937C8.63919 2.35937 7.47253 3.13715 6.88919 4.22049H7.80586C7.94475 3.63715 8.47253 3.19271 9.11142 3.19271C9.75031 3.19271 10.2781 3.63715 10.417 4.22049H13.1392ZM9.08341 3.74857C9.52785 3.74857 9.86118 4.10968 9.86118 4.52635C9.86118 4.94301 9.50007 5.30412 9.08341 5.30412C8.66674 5.30412 8.30563 4.94301 8.30563 4.52635C8.30563 4.10968 8.63896 3.74857 9.08341 3.74857ZM7.74956 4.80347H6.61067C6.49956 5.1368 6.444 5.52569 6.41622 5.91458C6.41622 7.8868 7.99956 9.47013 9.97178 9.47013C11.944 9.47013 13.5273 7.85902 13.5273 5.91458C13.5273 5.52569 13.444 5.16458 13.3329 4.80347H10.3607C10.2496 5.41458 9.694 5.8868 9.05511 5.8868C8.41622 5.8868 7.86067 5.41458 7.74956 4.80347Z" fill="#F3F5F6"/>
  <path fill-rule="evenodd" clip-rule="evenodd" d="M13.5842 9.58203H14.1398C16.1398 9.58203 17.7786 11.2209 17.7509 13.1931V17.9154C17.7509 18.082 17.6398 18.1931 17.4731 18.1931H2.47309C2.30642 18.1931 2.19531 18.082 2.19531 17.9154V13.1931C2.19531 11.1931 3.80642 9.58203 5.80642 9.58203H6.36198C6.66753 9.58203 6.94531 9.7487 7.0842 9.9987L9.52864 13.4431C9.61198 13.582 9.77864 13.6654 9.97309 13.6654C10.1398 13.6654 10.3064 13.582 10.4175 13.4431L12.862 9.9987C13.0286 9.7487 13.2786 9.58203 13.5842 9.58203ZM2.77972 17.6367H17.2242H17.2797V13.1923C17.2797 11.4978 15.9186 10.1367 14.2242 10.1367H13.6686C13.5575 10.1367 13.4742 10.1923 13.4186 10.2756C13.3908 10.2756 13.3908 10.3034 13.3908 10.3034L10.9464 13.7756C10.7242 14.0812 10.3908 14.2478 10.0297 14.2478C9.6686 14.2478 9.30749 14.0812 9.11305 13.7756L6.6686 10.3034C6.64083 10.3034 6.64083 10.2756 6.64083 10.2756C6.58527 10.1923 6.50194 10.1367 6.39083 10.1367H5.83527C4.14083 10.1367 2.77972 11.4978 2.77972 13.1923V17.6367Z" fill="#F3F5F6"/>
  <path d="M15.8325 14.7207H14.8602V13.7485C14.8602 13.5818 14.7491 13.4707 14.5825 13.4707C14.4158 13.4707 14.3047 13.5818 14.3047 13.7485V14.7207H13.3325C13.1658 14.7207 13.0547 14.8318 13.0547 14.9985C13.0547 15.1651 13.1658 15.2763 13.3325 15.2763H14.3047V16.2485C14.3047 16.4151 14.4158 16.5263 14.5825 16.5263C14.7491 16.5263 14.8602 16.4151 14.8602 16.2485V15.2763H15.8325C15.9991 15.2763 16.1102 15.1651 16.1102 14.9985C16.1102 14.8318 15.9714 14.7207 15.8325 14.7207Z" fill="#F3F5F6"/>
</svg>