<svg xmlns="http://www.w3.org/2000/svg" width="40" height="40" viewBox="0 0 40 40" fill="none">
  <path d="M14.3241 34.1997C13.09 34.1969 11.8843 33.8289 10.859 33.142C9.83373 32.455 9.03478 31.4799 8.56287 30.3396C8.09096 29.1992 7.96721 27.9447 8.20723 26.7342C8.44725 25.5236 9.04029 24.4112 9.91158 23.5372L20.5116 12.9247C20.8604 12.5758 21.2745 12.2991 21.7303 12.1104C22.186 11.9216 22.6745 11.8244 23.1678 11.8244C23.6611 11.8244 24.1496 11.9216 24.6054 12.1104C25.0611 12.2991 25.4753 12.5758 25.8241 12.9247C26.1729 13.2735 26.4496 13.6876 26.6384 14.1434C26.8272 14.5991 26.9243 15.0876 26.9243 15.5809C26.9243 16.0742 26.8272 16.5627 26.6384 17.0185C26.4496 17.4742 26.1729 17.8883 25.8241 18.2372L15.2116 28.8372C15.0995 28.968 14.9616 29.0743 14.8065 29.1493C14.6515 29.2244 14.4826 29.2665 14.3104 29.2732C14.1383 29.2798 13.9666 29.2508 13.8062 29.188C13.6458 29.1251 13.5001 29.0298 13.3783 28.908C13.2565 28.7862 13.1611 28.6405 13.0983 28.4801C13.0354 28.3197 13.0064 28.148 13.0131 27.9759C13.0197 27.8037 13.0619 27.6348 13.1369 27.4797C13.212 27.3246 13.3182 27.1867 13.4491 27.0747L24.0491 16.4622C24.2539 16.223 24.3609 15.9154 24.3487 15.6008C24.3366 15.2863 24.2062 14.9878 23.9835 14.7652C23.7609 14.5426 23.4625 14.4122 23.1479 14.4C22.8333 14.3879 22.5257 14.4949 22.2866 14.6997L11.6741 25.2997C10.9696 26.0041 10.5738 26.9596 10.5738 27.9559C10.5738 28.9522 10.9696 29.9077 11.6741 30.6122C12.3786 31.3166 13.334 31.7124 14.3303 31.7124C15.3266 31.7124 16.2821 31.3166 16.9866 30.6122L27.5866 19.9997C28.7251 18.8209 29.355 17.2421 29.3408 15.6034C29.3266 13.9647 28.6693 12.3971 27.5105 11.2383C26.3517 10.0795 24.7841 9.42219 23.1453 9.40795C21.5066 9.39371 19.9278 10.0237 18.7491 11.1622L12.5616 17.4122C12.3274 17.645 12.0106 17.7757 11.6803 17.7757C11.3501 17.7757 11.0333 17.645 10.7991 17.4122C10.6819 17.296 10.5889 17.1577 10.5255 17.0054C10.462 16.8531 10.4293 16.6897 10.4293 16.5247C10.4293 16.3597 10.462 16.1963 10.5255 16.0439C10.5889 15.8916 10.6819 15.7534 10.7991 15.6372L16.9866 9.38717C18.6276 7.74614 20.8533 6.82422 23.1741 6.82422C25.4948 6.82422 27.7206 7.74614 29.3616 9.38717C31.0026 11.0282 31.9245 13.2539 31.9245 15.5747C31.9245 17.8954 31.0026 20.1211 29.3616 21.7622L18.7491 32.3747C18.1676 32.9547 17.4775 33.4144 16.7182 33.7276C15.9589 34.0407 15.1454 34.2011 14.3241 34.1997Z" fill="#98A1B0"/>
</svg>