<svg xmlns="http://www.w3.org/2000/svg" width="24" height="25" viewBox="0 0 24 25" fill="none">
  <path d="M3 11.3652C3 7.594 3 5.70838 4.17157 4.53681C5.34315 3.36523 7.22876 3.36523 11 3.36523H13C16.7712 3.36523 18.6569 3.36523 19.8284 4.53681C21 5.70838 21 7.594 21 11.3652V13.3652C21 17.1365 21 19.0221 19.8284 20.1937C18.6569 21.3652 16.7712 21.3652 13 21.3652H11C7.22876 21.3652 5.34315 21.3652 4.17157 20.1937C3 19.0221 3 17.1365 3 13.3652V11.3652Z" stroke="#F3F5F6" stroke-width="2"/>
  <path fill-rule="evenodd" clip-rule="evenodd" d="M18.9997 13.9497L18.9794 13.9293C18.5898 13.5397 18.2537 13.2035 17.9536 12.9507C17.6367 12.6836 17.2917 12.4487 16.8665 12.3204C16.3014 12.1499 15.6986 12.1499 15.1335 12.3204C14.7083 12.4487 14.3633 12.6836 14.0464 12.9507C13.7463 13.2035 13.4102 13.5397 13.0206 13.9293L12.9921 13.9578C12.6852 14.2647 12.5046 14.4438 12.3645 14.5597L12.3443 14.5761L12.3317 14.5533C12.2447 14.3937 12.1435 14.1603 11.9726 13.7615L11.9191 13.6369L11.8971 13.5854L11.897 13.5853C11.5411 12.7547 11.2422 12.0572 10.9464 11.5316C10.6416 10.99 10.2618 10.4821 9.66982 10.1853C9.17604 9.93778 8.6235 9.83137 8.07311 9.87781C7.41323 9.9335 6.87197 10.264 6.38783 10.6537C5.98249 10.98 5.52754 11.4241 5 11.9501V13.3641C5 13.8809 5.0003 14.349 5.00308 14.7753L6.117 13.6614C6.80615 12.9722 7.26639 12.5139 7.64186 12.2117C8.01276 11.9132 8.17233 11.8765 8.24128 11.8707C8.42475 11.8552 8.60893 11.8907 8.77352 11.9732C8.83539 12.0042 8.96994 12.0975 9.20344 12.5125C9.43981 12.9325 9.69693 13.5289 10.0809 14.4247L10.1343 14.5493L10.1506 14.5874C10.2995 14.935 10.4378 15.2579 10.5759 15.511C10.7206 15.7763 10.9308 16.0941 11.2847 16.3132C11.702 16.5715 12.1997 16.6673 12.6831 16.5825C13.093 16.5105 13.4062 16.2935 13.6391 16.1009C13.8613 15.9172 14.1096 15.6688 14.3769 15.4014L14.377 15.4014L14.4063 15.3721C14.8325 14.9459 15.1083 14.6712 15.3353 14.48C15.5526 14.2968 15.6552 14.2521 15.7112 14.2352C15.8995 14.1784 16.1005 14.1784 16.2888 14.2352C16.3448 14.2521 16.4474 14.2968 16.6647 14.48C16.8917 14.6712 17.1675 14.9459 17.5937 15.3721L18.9441 16.7225C18.9902 16.0046 18.9983 15.1122 18.9997 13.9497Z" fill="#F3F5F6"/>
  <circle cx="16.5" cy="7.86523" r="1.5" fill="#F3F5F6"/>
</svg>