<svg xmlns="http://www.w3.org/2000/svg" width="24" height="24" viewBox="0 0 24 24" fill="none">
<path d="M12.0021 9.35938C11.6553 9.35938 11.3118 9.42769 10.9914 9.56042C10.6709 9.69316 10.3798 9.88771 10.1345 10.133C9.88927 10.3782 9.69472 10.6694 9.56199 10.9898C9.42925 11.3103 9.36094 11.6537 9.36094 12.0006C9.36094 12.3474 9.42925 12.6909 9.56199 13.0113C9.69472 13.3318 9.88927 13.6229 10.1345 13.8682C10.3798 14.1134 10.6709 14.308 10.9914 14.4407C11.3118 14.5735 11.6553 14.6418 12.0021 14.6418C12.7026 14.6416 13.3744 14.3632 13.8696 13.8678C14.3648 13.3723 14.6429 12.7005 14.6427 12C14.6426 11.2995 14.3642 10.6277 13.8687 10.1325C13.3733 9.63733 12.7014 9.35922 12.0009 9.35938H12.0021ZM3.60214 9.35938C3.25529 9.35938 2.91184 9.42769 2.59139 9.56042C2.27095 9.69316 1.97979 9.88771 1.73453 10.133C1.48927 10.3782 1.29472 10.6694 1.16199 10.9898C1.02925 11.3103 0.960938 11.6537 0.960938 12.0006C0.960938 12.3474 1.02925 12.6909 1.16199 13.0113C1.29472 13.3318 1.48927 13.6229 1.73453 13.8682C1.97979 14.1134 2.27095 14.308 2.59139 14.4407C2.91184 14.5735 3.25529 14.6418 3.60214 14.6418C4.30263 14.6416 4.97436 14.3632 5.46957 13.8678C5.96478 13.3723 6.2429 12.7005 6.24274 12C6.24258 11.2995 5.96416 10.6277 5.46872 10.1325C4.97329 9.63733 4.30143 9.35922 3.60094 9.35938H3.60214ZM20.4021 9.35938C20.0553 9.35938 19.7118 9.42769 19.3914 9.56042C19.0709 9.69316 18.7798 9.88771 18.5345 10.133C18.2893 10.3782 18.0947 10.6694 17.962 10.9898C17.8293 11.3103 17.7609 11.6537 17.7609 12.0006C17.7609 12.3474 17.8293 12.6909 17.962 13.0113C18.0947 13.3318 18.2893 13.6229 18.5345 13.8682C18.7798 14.1134 19.0709 14.308 19.3914 14.4407C19.7118 14.5735 20.0553 14.6418 20.4021 14.6418C21.1026 14.6416 21.7744 14.3632 22.2696 13.8678C22.7648 13.3723 23.0429 12.7005 23.0427 12C23.0426 11.2995 22.7642 10.6277 22.2687 10.1325C21.7733 9.63733 21.1014 9.35922 20.4009 9.35938H20.4021Z" fill="#98A1B0"/>
</svg>