<svg xmlns="http://www.w3.org/2000/svg" width="20" height="20" viewBox="0 0 20 20" fill="none">
  <path fill-rule="evenodd" clip-rule="evenodd" d="M14.6115 4.6667H15.1671C15.6115 4.6667 16.0004 5.05559 15.9449 5.50003V16.9445C15.9449 17.3889 15.5838 17.7778 15.1115 17.7778H6.19488C5.75043 17.7778 5.36155 17.4167 5.36155 16.9445V16.3889H4.80599C4.36155 16.3889 3.97266 16.0278 3.97266 15.5556V4.11114C3.97266 3.6667 4.33377 3.27781 4.80599 3.27781H5.19488C5.25043 3.00003 5.38932 2.77781 5.58377 2.58337C5.86155 2.33337 6.22266 2.19448 6.58377 2.22226C7.19488 2.25003 7.6671 2.69448 7.80599 3.27781H13.7782C14.2227 3.27781 14.6115 3.63892 14.6115 4.11114V4.6667ZM6.58377 2.77781C6.36155 2.77781 6.1671 2.86114 6.00043 3.00003C5.9171 3.08337 5.86155 3.1667 5.83377 3.27781H7.25043C7.13932 3.00003 6.88932 2.80559 6.58377 2.77781ZM4.55599 15.5556V4.11114C4.55599 3.94448 4.69488 3.83337 4.83377 3.83337H7.30599V5.61114C7.30599 5.75003 7.19488 5.86114 7.05599 5.86114C6.9171 5.86114 6.80599 5.75003 6.80599 5.61114V4.94448C6.80599 4.77781 6.69488 4.6667 6.52821 4.6667C6.36155 4.6667 6.25043 4.77781 6.25043 4.94448V5.61114C6.25043 6.05559 6.61155 6.4167 7.05599 6.4167C7.50043 6.4167 7.86154 6.05559 7.86154 5.61114V3.83337H13.7782C13.9449 3.83337 14.056 3.97225 14.056 4.11114V15.5556C14.056 15.7223 13.9171 15.8334 13.7782 15.8334H4.83377C4.69488 15.8334 4.55599 15.6945 4.55599 15.5556ZM15.1671 17.2223C15.306 17.2223 15.4449 17.1111 15.4449 16.9445H15.4171V5.50003C15.4171 5.36114 15.306 5.22225 15.1393 5.22225H14.5838V15.5556C14.5838 16 14.2227 16.3889 13.7504 16.3889H5.94488V16.9445C5.94488 17.0834 6.05599 17.2223 6.22266 17.2223H15.1671Z" fill="#F3F5F6"/>
  <path fill-rule="evenodd" clip-rule="evenodd" d="M8.36068 9.69358H7.72179C7.22179 9.69358 6.80512 9.27691 6.80512 8.77691C6.80512 8.27691 7.22179 7.86024 7.72179 7.86024H8.36068V7.22135C8.36068 6.72135 8.77734 6.30469 9.27734 6.30469C9.77734 6.30469 10.194 6.72135 10.194 7.22135V7.86024H10.8329C11.3329 7.86024 11.7496 8.27691 11.7496 8.77691C11.7496 9.27691 11.3329 9.69358 10.8329 9.69358H10.194V10.3325C10.194 10.8325 9.77734 11.2491 9.27734 11.2491C8.77734 11.2491 8.36068 10.8325 8.36068 10.3325V9.69358ZM8.63846 8.38802H7.72179C7.52734 8.38802 7.36068 8.55469 7.36068 8.74913C7.36068 8.94358 7.52734 9.11024 7.72179 9.11024H8.63846C8.80512 9.11024 8.91623 9.22135 8.91623 9.38802V10.3047C8.91623 10.4991 9.0829 10.6658 9.27734 10.6658C9.47179 10.6658 9.63846 10.4991 9.63846 10.3047V9.38802C9.63846 9.22135 9.74957 9.11024 9.91623 9.11024H10.8329C11.0273 9.11024 11.194 8.94358 11.194 8.74913C11.194 8.55469 11.0273 8.38802 10.8329 8.38802H9.91623C9.74957 8.38802 9.63846 8.27691 9.63846 8.11024V7.19358C9.63846 6.99913 9.47179 6.83247 9.27734 6.83247C9.0829 6.83247 8.91623 6.99913 8.91623 7.19358V8.11024C8.91623 8.27691 8.80512 8.38802 8.63846 8.38802ZM11.8051 12.4714H6.80512C6.63845 12.4714 6.52734 12.5825 6.52734 12.7491C6.52734 12.9158 6.63845 13.0269 6.80512 13.0269H11.8329C11.9996 13.0269 12.1107 12.9158 12.1107 12.7491C12.1107 12.5825 11.9718 12.4714 11.8051 12.4714ZM6.80512 13.8602H11.8051C11.9718 13.8602 12.1107 13.9714 12.1107 14.138C12.1107 14.3047 11.9996 14.4158 11.8329 14.4158H6.80512C6.63845 14.4158 6.52734 14.3047 6.52734 14.138C6.52734 13.9714 6.63845 13.8602 6.80512 13.8602Z" fill="#F3F5F6"/>
</svg>