<svg xmlns="http://www.w3.org/2000/svg" width="24" height="25" viewBox="0 0 24 25" fill="none">
  <path d="M12 21.3652C10.8181 21.3652 9.64778 21.1324 8.55585 20.6801C7.46392 20.2279 6.47177 19.5649 5.63604 18.7292C4.80031 17.8935 4.13738 16.9013 3.68508 15.8094C3.23279 14.7175 3 13.5471 3 12.3652C3 11.1833 3.23279 10.013 3.68508 8.92108C4.13738 7.82915 4.80031 6.837 5.63604 6.00127C6.47177 5.16555 7.46392 4.50261 8.55585 4.05032C9.64778 3.59803 10.8181 3.36523 12 3.36523C13.1819 3.36523 14.3522 3.59803 15.4442 4.05032C16.5361 4.50261 17.5282 5.16555 18.364 6.00127C19.1997 6.837 19.8626 7.82916 20.3149 8.92109C20.7672 10.013 21 11.1833 21 12.3652C21 13.5471 20.7672 14.7175 20.3149 15.8094C19.8626 16.9013 19.1997 17.8935 18.364 18.7292C17.5282 19.5649 16.5361 20.2279 15.4441 20.6802C14.3522 21.1324 13.1819 21.3652 12 21.3652L12 21.3652Z" stroke="#CCD2E3" stroke-width="2" stroke-linecap="round"/>
  <path d="M9 9.36523L15 15.3652" stroke="#CCD2E3" stroke-width="2" stroke-linecap="round"/>
  <path d="M15 9.36523L9 15.3652" stroke="#CCD2E3" stroke-width="2" stroke-linecap="round"/>
</svg>