<svg xmlns="http://www.w3.org/2000/svg" width="20" height="20" viewBox="0 0 20 20" fill="none">
  <path fill-rule="evenodd" clip-rule="evenodd" d="M12.0276 7.42717H11.6167C11.1783 7.42717 10.877 7.09841 10.877 6.66005C10.877 6.22169 11.2057 5.89293 11.6167 5.89293H12.0276V5.48197C12.0276 5.04361 12.3564 4.71484 12.7674 4.71484C13.1783 4.71484 13.5071 5.07101 13.5071 5.48197V5.89293H13.918C14.329 5.89293 14.6578 6.22169 14.6578 6.66005C14.6578 7.09841 14.329 7.42717 13.918 7.42717H13.5071V7.83813C13.5071 8.27649 13.1783 8.60525 12.7674 8.60525C12.3564 8.60525 12.0276 8.24909 12.0276 7.83813V7.42717ZM12.3015 6.46812H11.6165C11.4796 6.46812 11.3974 6.57771 11.4248 6.6873C11.4248 6.82429 11.507 6.90648 11.6165 6.90648H12.3015C12.4659 6.90648 12.5754 7.01607 12.5754 7.18045V7.86538C12.5754 8.00237 12.6576 8.08456 12.7672 8.08456C12.8768 8.08456 12.959 7.97497 12.959 7.86538V7.18045C12.959 7.01607 13.0686 6.90648 13.233 6.90648H13.9179C14.0275 6.90648 14.1097 6.79689 14.1097 6.6873C14.1097 6.55031 14.0275 6.46812 13.9179 6.46812H13.233C13.0686 6.46812 12.959 6.35853 12.959 6.19415V5.50922C12.959 5.37223 12.8768 5.29004 12.7672 5.29004C12.6576 5.29004 12.5754 5.39963 12.5754 5.50922V6.19415C12.5754 6.35853 12.4659 6.46812 12.3015 6.46812Z" fill="#F3F5F6"/>
  <path fill-rule="evenodd" clip-rule="evenodd" d="M16.7116 9.2347V3.89223C16.7116 3.42648 16.3555 3.07031 15.8897 3.07031H9.64314C9.17739 3.07031 8.82122 3.42648 8.82122 3.89223V8.85113C8.80752 8.83744 8.79382 8.81689 8.78013 8.79634C8.76643 8.77579 8.75273 8.75524 8.73903 8.74155L7.9993 7.48127C7.75273 7.07031 7.31437 6.79634 6.82122 6.79634H3.72533C2.95821 6.79634 2.35547 7.39908 2.35547 8.1662V15.8374C2.35547 16.6046 2.95821 17.2073 3.72533 17.2073H16.3007C17.0678 17.2073 17.6705 16.6046 17.6705 15.8374V10.5224C17.6431 9.91963 17.2596 9.39908 16.7116 9.2347ZM9.64309 3.61806H15.8897C16.054 3.61806 16.1636 3.72764 16.1636 3.89203V9.12491H9.42391H9.34172V3.89203C9.36911 3.75504 9.4787 3.61806 9.64309 3.61806ZM16.2733 16.6587C16.7391 16.6587 17.0952 16.3025 17.0952 15.8368H17.1226V10.5217C17.1226 10.056 16.7665 9.69981 16.3007 9.69981H9.4514C8.95825 9.69981 8.51989 9.42583 8.27332 9.01487L7.53359 7.7546C7.39661 7.50802 7.12263 7.34364 6.82126 7.34364H3.72537C3.25962 7.34364 2.90346 7.69981 2.90346 8.16556V15.8368C2.90346 16.3025 3.25962 16.6587 3.72537 16.6587H16.2733Z" fill="#F3F5F6"/>
  <path fill-rule="evenodd" clip-rule="evenodd" d="M4.41069 12.3301H9.3422C9.50658 12.3301 9.61617 12.4397 9.61617 12.6041C9.61617 12.7684 9.50658 12.878 9.3422 12.878H4.41069C4.24631 12.878 4.13672 12.7684 4.13672 12.6041C4.13672 12.4397 4.24631 12.3301 4.41069 12.3301ZM4.4108 13.7H9.34231C9.50669 13.7 9.61628 13.8096 9.61628 13.974C9.61628 14.1383 9.50669 14.2479 9.34231 14.2479H4.4108C4.24642 14.2479 4.13683 14.1383 4.13683 13.974C4.13683 13.8096 4.24642 13.7 4.4108 13.7Z" fill="#F3F5F6"/>
</svg>