<svg xmlns="http://www.w3.org/2000/svg" width="24" height="24" viewBox="0 0 24 24" fill="none">
  <rect width="24" height="24" fill="white"/>
  <path d="M10.3044 7.69137C10.3044 6.89516 10.9658 6.24113 11.7714 6.24113C12.5768 6.24113 13.2385 6.89516 13.2385 7.69137C13.2385 8.48759 12.5768 9.14162 11.7714 9.14162C10.9658 9.14162 10.3044 8.48759 10.3044 7.69137ZM13.0946 9.42598C13.6124 9.02787 13.9576 8.40228 13.9576 7.69137C13.9576 6.49705 12.9794 5.53022 11.7714 5.53022C10.5632 5.53022 9.58527 6.49705 9.58527 7.69137C9.58527 8.40228 9.93021 9.02787 10.4483 9.42598C9.2975 9.93783 8.49219 11.0753 8.49219 12.4118V15.3123C8.49219 15.5113 8.66451 15.6819 8.86584 15.6819H9.95921V20.0327C9.95921 20.2317 10.1315 20.4023 10.3329 20.4023C10.5342 20.4023 10.7071 20.2317 10.7071 20.0327V14.2033C10.7071 14.0042 10.5342 13.8336 10.3329 13.8336C10.1315 13.8336 9.95921 14.0042 9.95921 14.2033V14.9426H9.24005V12.3833C9.24005 10.99 10.3906 9.85252 11.8002 9.85252C13.2098 9.85252 14.3603 10.99 14.3603 12.3833V14.9426H13.6411V14.2317C13.6411 14.0326 13.4685 13.862 13.2672 13.862C13.0659 13.862 12.8933 14.0326 12.8933 14.2317V20.0327C12.8933 20.2317 13.0659 20.4023 13.2672 20.4023C13.4685 20.4023 13.6411 20.2317 13.6411 20.0327V15.6535H14.7342C14.9355 15.6535 15.1082 15.4829 15.1082 15.2838V12.3833C15.0794 11.0753 14.2741 9.90939 13.0946 9.42598Z" fill="#ACACAC"/>
  <path d="M7.74955 3.70892C8.55486 3.70892 9.21629 4.36295 9.21629 5.15916C9.21629 5.95538 8.55486 6.60941 7.74955 6.60941C6.94395 6.60941 6.28253 5.95538 6.28253 5.15916C6.28253 4.36295 6.94395 3.70892 7.74955 3.70892ZM7.74955 7.32031C8.95752 7.32031 9.93544 6.35348 9.93544 5.15916C9.93544 3.96484 8.95752 2.99801 7.74955 2.99801C6.54129 2.99801 5.5631 3.96484 5.5631 5.15916C5.53438 6.35348 6.54129 7.32031 7.74955 7.32031Z" fill="#ACACAC"/>
  <path d="M15.7995 3.70892C16.6048 3.70892 17.2665 4.36295 17.2665 5.15916C17.2665 5.95538 16.6048 6.60941 15.7995 6.60941C14.9939 6.60941 14.3324 5.95538 14.3324 5.15916C14.3324 4.36295 14.9939 3.70892 15.7995 3.70892ZM15.7995 7.32031C17.0077 7.32031 17.9856 6.35348 17.9856 5.15916C17.9856 3.96484 17.0077 2.99801 15.7995 2.99801C14.5912 2.99801 13.6133 3.96484 13.6133 5.15916C13.6133 6.35348 14.5912 7.32031 15.7995 7.32031Z" fill="#ACACAC"/>
  <path d="M7.20177 14.5721C7.00044 14.5721 6.82812 14.7427 6.82812 14.9417V20.0034C6.82812 20.2024 7.00044 20.373 7.20177 20.373C7.40338 20.373 7.57599 20.2024 7.57599 20.0034V14.9417C7.54699 14.7427 7.40338 14.5721 7.20177 14.5721Z" fill="#ACACAC"/>
  <path d="M5.90518 17.1029C5.70385 17.1029 5.53125 17.2735 5.53125 17.4726V20.0034C5.53125 20.2024 5.70385 20.373 5.90518 20.373C6.10651 20.373 6.27941 20.2024 6.27941 20.0034V17.4726C6.27941 17.2735 6.10651 17.1029 5.90518 17.1029Z" fill="#ACACAC"/>
  <path d="M5.90503 10.4488C5.21488 10.4488 4.66835 9.90853 4.66835 9.22606C4.66835 8.5436 5.21488 8.00331 5.90503 8.00331C6.59546 8.00331 7.142 8.5436 7.142 9.22606C7.142 9.90853 6.59546 10.4488 5.90503 10.4488ZM5.90503 7.26397C4.81223 7.26397 3.94892 8.14549 3.94892 9.22606C3.94892 9.82323 4.23669 10.3635 4.66835 10.7332C3.69014 11.1882 3 12.2119 3 13.3493V15.8801C3 16.0792 3.17231 16.2498 3.37364 16.2498H4.29412V20.0034C4.29412 20.2024 4.46702 20.373 4.66835 20.373C4.86968 20.373 5.042 20.2024 5.042 20.0034V14.9417C5.042 14.7427 4.86968 14.5721 4.66835 14.5721C4.46702 14.5721 4.29412 14.7427 4.29412 14.9417V15.5105H3.74759V13.3493C3.74759 12.155 4.72578 11.1882 5.93404 11.1882C7.02712 11.1882 7.9186 10.3066 7.9186 9.2545C7.88988 8.14549 6.99812 7.26397 5.90503 7.26397Z" fill="#ACACAC"/>
  <path d="M16.4066 9.22606C16.4066 8.5436 16.9532 8.00331 17.6436 8.00331C18.334 8.00331 18.8806 8.5436 18.8806 9.22606C18.8806 9.90853 18.334 10.4488 17.6436 10.4488C16.9532 10.4488 16.4066 9.90853 16.4066 9.22606ZM18.8806 10.7332C19.312 10.3635 19.5997 9.82322 19.5997 9.22606C19.5997 8.14549 18.708 7.2924 17.6436 7.2924C16.5505 7.2924 15.6875 8.17393 15.6875 9.22606C15.6875 10.3066 16.5795 11.1597 17.6436 11.1597C18.8519 11.1597 19.8298 12.1266 19.8298 13.3209V15.5105H19.2832V14.9417C19.2832 14.7427 19.1106 14.5721 18.9093 14.5721C18.708 14.5721 18.5357 14.7427 18.5357 14.9417V20.0034C18.5357 20.2024 18.708 20.373 18.9093 20.373C19.1106 20.373 19.2832 20.2024 19.2832 20.0034V16.2498H20.204C20.4053 16.2498 20.5777 16.0792 20.5777 15.8801V13.3493C20.5777 12.1834 19.8872 11.1882 18.8806 10.7332Z" fill="#ACACAC"/>
  <path d="M16.3466 14.5721C16.1453 14.5721 15.9727 14.7427 15.9727 14.9417V20.0034C15.9727 20.2024 16.1453 20.373 16.3466 20.373C16.5479 20.373 16.7205 20.2024 16.7205 20.0034V14.9417C16.7205 14.7427 16.5479 14.5721 16.3466 14.5721Z" fill="#ACACAC"/>
  <path d="M17.6396 17.1029C17.4382 17.1029 17.2656 17.2735 17.2656 17.4726V20.0034C17.2656 20.2024 17.4382 20.373 17.6396 20.373C17.8412 20.373 18.0135 20.2024 18.0135 20.0034V17.4726C18.0135 17.2735 17.8412 17.1029 17.6396 17.1029Z" fill="#ACACAC"/>
</svg>