<svg xmlns="http://www.w3.org/2000/svg" width="32" height="32" viewBox="0 0 32 32" fill="none">
<g clip-path="url(#clip0_30_513)">
<path d="M16 0C12.8355 0 9.74207 0.938384 7.11088 2.69649C4.4797 4.45459 2.42894 6.95345 1.21793 9.87706C0.0069325 12.8007 -0.309921 16.0177 0.307443 19.1214C0.924806 22.2251 2.44866 25.0761 4.6863 27.3137C6.92394 29.5513 9.77487 31.0752 12.8786 31.6926C15.9823 32.3099 19.1993 31.9931 22.1229 30.7821C25.0466 29.5711 27.5454 27.5203 29.3035 24.8891C31.0616 22.2579 32 19.1645 32 16C31.9957 11.7579 30.3086 7.69073 27.3089 4.69109C24.3093 1.69145 20.2421 0.00434244 16 0ZM22.9978 17.332H17.332V22.9977C17.332 23.3514 17.1915 23.6906 16.9414 23.9407C16.6913 24.1908 16.3521 24.3314 15.9984 24.3314C15.6447 24.3314 15.3055 24.1908 15.0554 23.9407C14.8053 23.6906 14.6648 23.3514 14.6648 22.9977V17.332H8.99898C8.64529 17.332 8.30608 17.1915 8.05598 16.9414C7.80588 16.6913 7.66537 16.3521 7.66537 15.9984C7.66537 15.6447 7.80588 15.3055 8.05598 15.0554C8.30608 14.8053 8.64529 14.6648 8.99898 14.6648H14.6648V8.99897C14.6648 8.64528 14.8053 8.30607 15.0554 8.05597C15.3055 7.80587 15.6447 7.66537 15.9984 7.66537C16.3521 7.66537 16.6913 7.80587 16.9414 8.05597C17.1915 8.30607 17.332 8.64528 17.332 8.99897V14.6648H22.9978C23.3514 14.6648 23.6907 14.8053 23.9408 15.0554C24.1909 15.3055 24.3314 15.6447 24.3314 15.9984C24.3314 16.3521 24.1909 16.6913 23.9408 16.9414C23.6907 17.1915 23.3514 17.332 22.9978 17.332Z" fill="#3CA5DC"/>
</g>
<defs>
<clipPath id="clip0_30_513">
<rect width="32" height="32" fill="white"/>
</clipPath>
</defs>
</svg>