<svg xmlns="http://www.w3.org/2000/svg" width="20" height="20" viewBox="0 0 20 20" fill="none">
<path fill-rule="evenodd" clip-rule="evenodd" d="M14.1085 5.91775C14.1085 8.19553 12.2474 10.0289 9.9974 10.0289C7.71962 10.0289 5.91406 8.19553 5.91406 5.91775C5.91406 3.63997 7.77517 1.80664 10.0252 1.80664C11.7474 1.80664 13.2196 2.8622 13.8307 4.38997V4.41775C13.9974 4.88997 14.1085 5.38997 14.1085 5.91775ZM13.1363 4.22331C12.5252 3.1122 11.3585 2.3622 9.9974 2.3622C8.63628 2.3622 7.46962 3.13997 6.88628 4.22331H7.80295C7.94184 3.63997 8.46962 3.19553 9.10851 3.19553C9.7474 3.19553 10.2752 3.63997 10.4141 4.22331H13.1363ZM9.07899 3.75109C9.52344 3.75109 9.85677 4.1122 9.85677 4.52886C9.85677 4.94553 9.49566 5.30664 9.07899 5.30664C8.66233 5.30664 8.30122 4.94553 8.30122 4.52886C8.30122 4.1122 8.63455 3.75109 9.07899 3.75109ZM7.74653 4.80577H6.60764C6.49653 5.13911 6.44097 5.528 6.41319 5.91688C6.41319 7.88911 7.99653 9.47244 9.96875 9.47244C11.941 9.47244 13.5243 7.86133 13.5243 5.91688C13.5243 5.528 13.441 5.16688 13.3299 4.80577H10.3576C10.2465 5.41688 9.69097 5.88911 9.05208 5.88911C8.41319 5.88911 7.85764 5.41688 7.74653 4.80577Z" fill="#F3F5F6"/>
<path fill-rule="evenodd" clip-rule="evenodd" d="M13.5803 9.58203H14.1359C16.1359 9.58203 17.7747 11.2209 17.747 13.1931V17.9154C17.747 18.082 17.6359 18.1931 17.4692 18.1931H2.46918C2.30252 18.1931 2.19141 18.082 2.19141 17.9154V13.1931C2.19141 11.1931 3.80252 9.58203 5.80252 9.58203H6.35807C6.66363 9.58203 6.94141 9.7487 7.0803 9.9987L9.52474 13.4431C9.60807 13.582 9.77474 13.6654 9.96918 13.6654C10.1359 13.6654 10.3025 13.582 10.4136 13.4431L12.8581 9.9987C13.0247 9.7487 13.2747 9.58203 13.5803 9.58203ZM2.773 17.6376H17.2174H17.273V13.1931C17.273 11.4987 15.9119 10.1376 14.2174 10.1376H13.6619C13.5508 10.1376 13.4674 10.1931 13.4119 10.2765C13.3841 10.2765 13.3841 10.3043 13.3841 10.3043L10.9397 13.7765C10.7174 14.082 10.3841 14.2487 10.023 14.2487C9.66189 14.2487 9.30078 14.082 9.10634 13.7765L6.66189 10.3043C6.63411 10.3043 6.63411 10.2765 6.63411 10.2765C6.57856 10.1931 6.49523 10.1376 6.38411 10.1376H5.82856C4.13411 10.1376 2.773 11.4987 2.773 13.1931V17.6376Z" fill="#F3F5F6"/>
<path d="M15.8325 14.7227H14.8602V13.7504C14.8602 13.5838 14.7491 13.4727 14.5825 13.4727C14.4158 13.4727 14.3047 13.5838 14.3047 13.7504V14.7227H13.3325C13.1658 14.7227 13.0547 14.8338 13.0547 15.0004C13.0547 15.1671 13.1658 15.2782 13.3325 15.2782H14.3047V16.2504C14.3047 16.4171 14.4158 16.5282 14.5825 16.5282C14.7491 16.5282 14.8602 16.4171 14.8602 16.2504V15.2782H15.8325C15.9991 15.2782 16.1102 15.1671 16.1102 15.0004C16.1102 14.8338 15.9714 14.7227 15.8325 14.7227Z" fill="#F3F5F6"/>
</svg>