<svg xmlns="http://www.w3.org/2000/svg" width="20" height="20" viewBox="0 0 20 20" fill="none">
  <path d="M7.93822 5.69117C8.00076 5.81541 8.04048 5.9481 8.05823 6.08586L8.09375 6.36476C8.13516 6.69099 8.39294 7.09921 8.57972 7.3443L8.57718 7.35444L8.51293 8.03057C8.49941 8.17847 8.60758 8.30948 8.75548 8.32384C8.76394 8.32469 8.77325 8.32469 8.7817 8.32469C8.91861 8.32469 9.0361 8.22073 9.04878 8.08128L9.11299 7.406C9.11553 7.38572 9.1147 7.36628 9.11217 7.34684C9.1409 7.26148 9.12652 7.16429 9.06482 7.08991C8.87382 6.85918 8.65239 6.48985 8.62788 6.29715L8.59239 6.01825C8.56704 5.82048 8.50955 5.62948 8.41996 5.4503L8.38533 5.381C8.29997 5.21112 8.25516 5.02096 8.25516 4.8308V3.67547C8.25516 2.68072 9.06399 1.8719 10.0587 1.8719C11.0527 1.8719 11.8623 2.68072 11.8623 3.67547V4.77925C11.8623 4.9973 11.804 5.21112 11.6941 5.39959C11.5741 5.60581 11.498 5.83062 11.4676 6.06727L11.438 6.29715C11.4118 6.50421 11.1786 6.88876 10.9774 7.1178C10.9233 7.18034 10.903 7.25979 10.9149 7.33501C10.9115 7.35445 10.9098 7.37388 10.9106 7.39417L10.9462 8.07875C10.9538 8.22242 11.0721 8.33398 11.2149 8.33398H11.2284C11.3772 8.32638 11.4913 8.1996 11.4837 8.05086L11.4499 7.39248C11.6409 7.15499 11.9265 6.72311 11.9722 6.36476L12.0018 6.13573C12.022 5.97092 12.0753 5.81457 12.159 5.67089C12.317 5.40044 12.4007 5.09196 12.4007 4.77925V3.67547C12.4007 2.38407 11.3501 1.33353 10.0587 1.33353C8.76734 1.33353 7.7168 2.38407 7.7168 3.67547V4.8308C7.7168 5.10379 7.78189 5.37762 7.90359 5.62187L7.93822 5.69117Z" fill="#F3F5F6"/>
  <path d="M17.2914 16.9154H2.53836V9.18047H6.32044L5.45416 9.46951C4.70619 9.707 4.20332 10.3924 4.1991 11.1767L3.8923 15.8581C3.88215 16.0068 3.99455 16.1353 4.1433 16.1446L4.16106 16.1454C4.30136 16.1454 4.41968 16.0364 4.42897 15.8936L4.7366 11.2038L4.73746 11.186C4.73746 10.6325 5.09158 10.149 5.61896 9.98168L5.62233 9.98083L7.96342 9.20075C7.97948 9.19568 7.99384 9.18892 8.00736 9.18047H12.0016C12.016 9.18892 12.0303 9.19568 12.0464 9.20075L14.4061 9.98168C14.9326 10.149 15.2876 10.6325 15.2876 11.186V11.2038L15.6045 15.8944C15.6147 16.0364 15.733 16.1454 15.8733 16.1454L15.891 16.1446C16.0398 16.1344 16.1522 16.006 16.142 15.8581L15.8251 11.1767C15.8217 10.3916 15.3172 9.70616 14.5717 9.46951L13.6987 9.18047H17.2914V16.9154ZM17.5602 8.64295H2.26873C2.12083 8.64295 2 8.76296 2 8.91171V17.185C2 17.3329 2.12083 17.4537 2.26873 17.4537H3.86694L3.77734 18.555C3.76551 18.7029 3.87541 18.833 4.02415 18.8449L4.04611 18.8457C4.18472 18.8457 4.30219 18.7392 4.31402 18.5981L4.40699 17.4537H15.6121L15.711 18.5998C15.7228 18.7401 15.8403 18.8457 15.9789 18.8457C15.9865 18.8457 15.9941 18.8457 16.0026 18.8449C16.1505 18.8322 16.2595 18.7012 16.2468 18.5533L16.1522 17.4537H17.5602C17.7089 17.4537 17.829 17.3329 17.829 17.185V8.91171C17.829 8.76296 17.7089 8.64295 17.5602 8.64295Z" fill="#F3F5F6"/>
  <path d="M12.6354 14.4297C13.3301 14.4297 13.8625 14.3274 13.9107 14.3181C14.0569 14.2894 14.1516 14.1474 14.1228 14.002C14.0941 13.8558 13.9521 13.7612 13.8067 13.7899C13.8 13.7916 13.1957 13.9091 12.4469 13.8871C11.797 13.8685 10.9121 13.7358 10.3238 13.227V12.3903C11.0008 12.8146 11.797 12.9228 12.43 12.9228C13.0529 12.9228 13.5185 12.8188 13.5599 12.8095C13.7053 12.7757 13.7957 12.6312 13.7619 12.4867C13.729 12.3421 13.5845 12.2517 13.4391 12.2847C13.4196 12.2897 11.469 12.7233 10.3238 11.721V10.8902C10.9687 11.3085 11.6735 11.4159 12.2263 11.4159C12.7773 11.4159 13.1771 11.3094 13.2126 11.2992C13.3554 11.2595 13.4391 11.1116 13.4002 10.9688C13.3605 10.8259 13.2126 10.7414 13.0698 10.7803C13.0529 10.7845 11.4471 11.2063 10.3238 10.214V10.0281C10.3238 9.87935 10.2038 9.75849 10.0551 9.75849C9.90634 9.75849 9.78546 9.87935 9.78546 10.0281V10.2352C8.66731 11.1986 7.11985 10.7862 7.10125 10.7811C6.95842 10.7406 6.80968 10.8242 6.76996 10.9671C6.72939 11.1099 6.81222 11.2587 6.95589 11.2992C6.99054 11.3085 7.38354 11.4159 7.92783 11.4159C8.46535 11.4159 9.15074 11.3111 9.78546 10.9054V11.7421C8.64196 12.7123 6.71925 12.2906 6.69389 12.2847C6.54937 12.2517 6.40484 12.3421 6.37187 12.4867C6.33807 12.6312 6.42851 12.7757 6.57303 12.8095C6.595 12.8146 7.06574 12.9211 7.70046 12.9211C7.75962 12.9211 7.82133 12.9202 7.88302 12.9177C8.62507 12.8932 9.2716 12.7174 9.78546 12.4038V13.2482C8.61998 14.226 6.35074 13.795 6.32707 13.7899C6.18086 13.7612 6.03973 13.8558 6.011 14.002C5.98226 14.1474 6.0769 14.2894 6.22311 14.3181C6.27129 14.3274 6.80374 14.4297 7.49762 14.4297C8.22868 14.4297 9.13809 14.3156 9.85224 13.8634C9.90126 13.9201 9.97395 13.9572 10.0551 13.9572C10.1404 13.9572 10.2165 13.9158 10.2655 13.8533C10.9822 14.3139 11.8992 14.4297 12.6354 14.4297Z" fill="#F3F5F6"/>
</svg>